<?xml version="1.0" encoding="utf-8"?>
<!-- Generator: Adobe Illustrator 16.0.0, SVG Export Plug-In . SVG Version: 6.00 Build 0)  -->
<!DOCTYPE svg PUBLIC "-//W3C//DTD SVG 1.1//EN" "http://www.w3.org/Graphics/SVG/1.1/DTD/svg11.dtd">
<svg version="1.1" id="Layer_1" xmlns="http://www.w3.org/2000/svg" xmlns:xlink="http://www.w3.org/1999/xlink" x="0px" y="0px"
	 width="85px" height="85px" viewBox="0 0 85 85" enable-background="new 0 0 85 85" xml:space="preserve">
<ellipse fill="#FFFFFF" cx="43.063" cy="42.5" rx="34.813" ry="18.328"/>
<path fill="#BBBBBB" d="M80.369,43.801l0.797-1.301l-0.797-1.302c-0.135-0.217-3.34-5.392-9.569-10.578
	c-8.284-6.896-18.044-10.542-28.225-10.542c-10.178,0-19.962,3.644-28.294,10.537C8.016,35.798,4.773,40.97,4.639,41.188L3.825,42.5
	l0.814,1.313c0.135,0.218,3.377,5.389,9.642,10.572c8.332,6.894,18.116,10.537,28.294,10.537c10.181,0,19.941-3.646,28.225-10.542
	C77.029,49.193,80.234,44.019,80.369,43.801z M67.48,50.661c-7.452,6.158-15.832,9.28-24.906,9.28
	c-9.077,0-17.484-3.124-24.987-9.286c-3.881-3.187-6.512-6.413-7.8-8.155c1.289-1.743,3.92-4.969,7.8-8.156
	c7.503-6.161,15.91-9.286,24.987-9.286c9.074,0,17.453,3.123,24.906,9.28c3.863,3.192,6.472,6.423,7.742,8.162
	C73.951,44.239,71.344,47.471,67.48,50.661z"/>
<path fill="#BBBBBB" d="M42.5,27.537c-8.251,0-14.963,6.712-14.963,14.963S34.249,57.463,42.5,57.463S57.463,50.751,57.463,42.5
	S50.751,27.537,42.5,27.537z M42.5,52.482c-5.504,0-9.983-4.479-9.983-9.982c0-5.504,4.479-9.983,9.983-9.983
	c5.504,0,9.982,4.479,9.982,9.983C52.482,48.004,48.004,52.482,42.5,52.482z"/>
</svg>
