<?xml version="1.0" encoding="utf-8"?>
<!-- Generator: Adobe Illustrator 16.0.0, SVG Export Plug-In . SVG Version: 6.00 Build 0)  -->
<!DOCTYPE svg PUBLIC "-//W3C//DTD SVG 1.1//EN" "http://www.w3.org/Graphics/SVG/1.1/DTD/svg11.dtd">
<svg version="1.1" id="Layer_1" xmlns="http://www.w3.org/2000/svg" xmlns:xlink="http://www.w3.org/1999/xlink" x="0px" y="0px"
	 width="85px" height="85px" viewBox="0 0 85 85" enable-background="new 0 0 85 85" xml:space="preserve">
<g>
	<path fill="#26AF71" d="M85,80.748C85,83.094,83.099,85,80.748,85H4.247C1.902,85,0,83.094,0,80.748V4.247C0,1.902,1.902,0,4.247,0
		h76.501C83.099,0,85,1.902,85,4.247V80.748z"/>
	<g>
		
			<rect x="49.615" y="41.401" transform="matrix(0.7071 -0.7071 0.7071 0.7071 -20.6466 50.4564)" fill="#EFEFEF" stroke="#EFEFEF" stroke-width="2" stroke-miterlimit="10" width="1.936" height="17.5"/>
		<path fill="#EFEFEF" stroke="#EFEFEF" stroke-width="2" stroke-miterlimit="10" d="M68.665,65.614
			c0.435,0.435,0.584,0.99,0.327,1.252l-1.696,1.691c-0.257,0.257-0.817,0.112-1.252-0.327L51.686,53.877
			c-0.438-0.438-0.584-1-0.327-1.252l1.696-1.696c0.257-0.257,0.813-0.107,1.248,0.322L68.665,65.614z"/>
		<path fill="#26AF71" d="M45.351,21.967c-6.336-6.338-16.615-6.338-22.946,0c-6.341,6.335-6.341,16.61,0,22.946
			c6.331,6.338,16.61,6.338,22.946,0C51.682,38.578,51.682,28.303,45.351,21.967z"/>
		<path fill="#EFEFEF" stroke="#EFEFEF" stroke-width="2" stroke-miterlimit="10" d="M46.593,20.725
			c-7.027-7.023-18.414-7.023-25.432,0c-7.027,7.022-7.027,18.409,0,25.429c7.018,7.023,18.405,7.023,25.432,0
			C53.611,39.134,53.611,27.747,46.593,20.725z M44.977,44.542c-6.125,6.13-16.073,6.13-22.203,0c-6.135-6.13-6.135-16.073,0-22.203
			c6.13-6.133,16.078-6.133,22.203,0C51.106,28.469,51.106,38.412,44.977,44.542z"/>
	</g>
</g>
<g>
	<path fill="#26AF71" d="M-13.25,74.141c0,2.346-1.897,4.252-4.252,4.252h-76.496c-2.346,0-4.252-1.906-4.252-4.252V-2.36
		c0-2.345,1.906-4.247,4.252-4.247h76.496c2.354,0,4.252,1.902,4.252,4.247V74.141z"/>
	<g>
		<g>
			<line fill="#F2F2F2" x1="-82.663" y1="17.932" x2="-28.837" y2="17.932"/>
			<rect x="-82.663" y="15.54" fill="#FFFFFF" width="53.826" height="4.785"/>
		</g>
		<g>
			<line fill="#F2F2F2" x1="-82.663" y1="35.893" x2="-28.837" y2="35.893"/>
			<rect x="-82.663" y="33.5" fill="#FFFFFF" width="53.826" height="4.785"/>
		</g>
		<g>
			<line fill="#F2F2F2" x1="-82.663" y1="53.854" x2="-28.837" y2="53.854"/>
			<rect x="-82.663" y="51.461" fill="#FFFFFF" width="53.826" height="4.784"/>
		</g>
	</g>
</g>
</svg>
