<?xml version="1.0" encoding="utf-8"?>
<!-- Generator: Adobe Illustrator 16.0.0, SVG Export Plug-In . SVG Version: 6.00 Build 0)  -->
<!DOCTYPE svg PUBLIC "-//W3C//DTD SVG 1.1//EN" "http://www.w3.org/Graphics/SVG/1.1/DTD/svg11.dtd">
<svg version="1.1" id="Layer_1" xmlns="http://www.w3.org/2000/svg" xmlns:xlink="http://www.w3.org/1999/xlink" x="0px" y="0px"
	 width="85px" height="85px" viewBox="0 0 85 85" enable-background="new 0 0 85 85" xml:space="preserve">
<g>
	<path fill="#26AF71" d="M85.162,42.264c0,23.475-19.029,42.496-42.499,42.496c-23.477,0-42.502-19.021-42.502-42.496
		c0-23.473,19.025-42.502,42.502-42.502C66.133-0.238,85.162,18.791,85.162,42.264z"/>
	<g>
		<rect x="38.229" y="13.529" fill="#FFFFFF" width="8.866" height="57.464"/>
		<rect x="13.933" y="37.829" fill="#FFFFFF" width="57.462" height="8.864"/>
	</g>
</g>
<g>
	<path fill="#26AF71" d="M117.946,34.811c0,0.49-0.396,0.889-0.889,0.889h-15.988c-0.49,0-0.889-0.398-0.889-0.889V18.822
		c0-0.49,0.398-0.888,0.889-0.888h15.988c0.492,0,0.889,0.397,0.889,0.888V34.811z"/>
	<g>
		<line fill="#F2F2F2" stroke="#FFFFFF" stroke-miterlimit="10" x1="103.438" y1="23.063" x2="114.688" y2="23.063"/>
		<line fill="#F2F2F2" stroke="#FFFFFF" stroke-miterlimit="10" x1="103.438" y1="26.817" x2="114.688" y2="26.817"/>
		<line fill="#F2F2F2" stroke="#FFFFFF" stroke-miterlimit="10" x1="103.438" y1="30.571" x2="114.688" y2="30.571"/>
	</g>
</g>
</svg>
