<?xml version="1.0" encoding="utf-8"?>
<!-- Generator: Adobe Illustrator 16.0.0, SVG Export Plug-In . SVG Version: 6.00 Build 0)  -->
<!DOCTYPE svg PUBLIC "-//W3C//DTD SVG 1.1//EN" "http://www.w3.org/Graphics/SVG/1.1/DTD/svg11.dtd">
<svg version="1.1" id="Layer_1" xmlns="http://www.w3.org/2000/svg" xmlns:xlink="http://www.w3.org/1999/xlink" x="0px" y="0px"
	 width="85px" height="85px" viewBox="0 0 85 85" enable-background="new 0 0 85 85" xml:space="preserve">
<g>
	<path fill="#4AB749" d="M79.267,35.714C79.267,15.987,63.279,0,43.552,0C23.834,0,7.837,15.987,7.837,35.714
		c0,16.52,11.238,30.377,26.466,34.456L43.533,85l9.257-14.83C68.019,66.102,79.267,52.234,79.267,35.714z"/>
	<path fill="#80C675" d="M43.552,0C23.834,0,7.837,15.987,7.837,35.714c0,9.864,3.999,18.788,10.47,25.245l50.48-50.503
		C62.344,3.999,53.42,0,43.552,0z"/>
	<path opacity="0.9" fill="#FFFFFF" d="M73.092,35.714c0,16.301-13.22,29.536-29.54,29.536c-16.311,0-29.549-13.234-29.549-29.536
		c0-16.316,13.238-29.535,29.549-29.535C59.872,6.179,73.092,19.398,73.092,35.714z"/>
</g>
<g>
	<path fill="#B34848" d="M79.267,35.713C79.267,15.991,63.271,0,43.546,0C23.838,0,7.833,15.991,7.833,35.713
		c0,16.527,11.256,30.385,26.483,34.459L43.546,85l9.257-14.828C68.03,66.098,79.267,52.24,79.267,35.713z"/>
	<path fill="#E5A3A3" d="M43.546,0C23.838,0,7.833,15.991,7.833,35.713c0,9.863,4.008,18.787,10.469,25.248l50.496-50.506
		C62.346,3.999,53.413,0,43.546,0z"/>
	<path opacity="0.9" fill="#FFFFFF" d="M73.104,35.713c0,16.305-13.229,29.533-29.558,29.533c-16.292,0-29.539-13.229-29.539-29.533
		c0-16.315,13.247-29.534,29.539-29.534C59.875,6.179,73.104,19.397,73.104,35.713z"/>
</g>
<g>
	<path fill="#BE914E" d="M79.267,35.708C79.267,15.986,63.299,0,43.563,0C23.865,0,7.869,15.986,7.869,35.708
		c0,16.523,11.237,30.386,26.465,34.462L43.563,85l9.257-14.83C68.038,66.094,79.267,52.23,79.267,35.708z"/>
	<path fill="#E5B97F" d="M43.563,0C23.865,0,7.869,15.986,7.869,35.708c0,9.863,4.008,18.787,10.47,25.248l50.495-50.5
		C62.363,3.999,53.44,0,43.563,0z"/>
	<path opacity="0.9" fill="#FFFFFF" d="M73.12,35.708c0,16.314-13.237,29.542-29.557,29.542c-16.292,0-29.529-13.229-29.529-29.542
		c0-16.31,13.237-29.534,29.529-29.534C59.883,6.174,73.12,19.397,73.12,35.708z"/>
</g>
</svg>
